<?xml version="1.0" encoding="utf-8"?>
<!-- Generator: Adobe Illustrator 22.1.0, SVG Export Plug-In . SVG Version: 6.00 Build 0)  -->
<svg version="1.1" id="图层_1" xmlns="http://www.w3.org/2000/svg" xmlns:xlink="http://www.w3.org/1999/xlink" x="0px" y="0px"
	 viewBox="0 0 96 98.8" style="enable-background:new 0 0 96 98.8;" xml:space="preserve">
<g>
	<path d="M26.9,7.6v2.4c0,1.8-0.1,3.5-0.2,5.2c-0.1,1.6-0.3,3.2-0.5,4.6h13.1l2-1.8l2.4,4H30.9v16.1c0,1.2,0.6,1.8,1.8,1.8h3.6
		c1,0,1.7-0.6,2.2-1.9c0.5-1.3,0.7-3.3,0.6-6l4.5,1.1c0.8,0.2,1.4,0.6,1.7,1.1c0.3,0.5,0.3,1.3,0.2,2.2c-0.4,2.9-1.1,5.1-2.4,6.5
		S40,45,37.7,45h-8.8c-1.4,0-2.6-0.5-3.5-1.6c-0.9-1.1-1.4-2.6-1.4-4.5V28.5c-1,2.4-2.1,4.4-3.5,6.2c-1.4,1.8-3,3.3-4.7,4.7
		c-1.8,1.3-3.7,2.5-5.8,3.5c-2.1,1-4.4,1.8-6.8,2.5c4.6-3.2,8.1-6.7,10.7-10.5c2.6-3.8,4.3-8.1,5.3-12.7H5.5l-1.1-2.2h15
		c0.2-1.3,0.3-2.6,0.5-3.9c0.1-1.3,0.2-2.7,0.2-4.2V7.6H8L6.8,5.5h30l2-1.8l2.4,4H26.9z"/>
	<path d="M88.8,20.2h-6.8v-1.9h-4c1.9,3.2,4.1,5.8,6.7,7.7c2.6,1.9,5.5,3.4,8.9,4.2l-4.2,5.9c-0.2,0.3-0.6,0.4-1,0.5
		c-0.4,0-0.8-0.1-1.1-0.3c-1.1-0.6-2.1-1.5-3.2-2.7c-1.1-1.2-2.2-2.5-3.2-4.1c-1-1.6-2-3.3-2.9-5.2c-0.9-1.9-1.7-3.9-2.4-6H63.7
		c-0.2,1.9-0.6,3.8-1.2,5.7c-0.6,1.9-1.4,3.6-2.5,5.3c-1.1,1.7-2.4,3.2-3.9,4.6c-1.6,1.4-3.4,2.7-5.5,3.8c1.2-1.7,2.2-3.4,3-5.1
		c0.8-1.7,1.5-3.5,2-5.4c0.5-1.9,0.9-3.9,1.1-6c0.2-2.1,0.3-4.4,0.3-6.9V2.6l9.1,1.2l-2.2,1.7v0.1h18l1.2-1.9l7,2l-1.4,2.2V20.2z
		 M76.2,45.4c-1.2-1.3-2.4-2.6-3.8-3.8c-1.4-1.3-2.8-2.4-4.2-3.5c-1.4-1.1-2.8-2-4.2-2.9c-1.4-0.8-2.6-1.4-3.7-1.9
		c4.1,0.6,7.5,1.2,10.2,1.9c2.7,0.7,4.8,1.4,6.3,2.1c1.5,0.7,2.5,1.4,2.9,2.1c0.4,0.7,0.4,1.3,0,1.8L76.2,45.4z M63.9,15.1
		c0,0.2,0,0.4,0,0.6c0,0.2,0,0.4,0,0.5h18V7.8h-18V15.1z M73.5,33.2c-0.5-0.8-1.1-1.7-1.7-2.6c-0.7-0.9-1.4-1.8-2.2-2.7
		c-0.8-0.9-1.6-1.7-2.5-2.5c-0.9-0.8-1.7-1.5-2.6-2c1.9,0.1,3.6,0.4,5.4,0.7c1.7,0.4,3.2,0.8,4.4,1.3c1.2,0.5,2,1.1,2.5,1.8
		c0.5,0.6,0.5,1.3-0.1,2L73.5,33.2z"/>
</g>
<g>
	<path d="M33.2,74.7v14.2c0,1.2,0.6,1.8,1.7,1.8h2.3c0.5,0,0.9-0.1,1.2-0.3s0.5-0.5,0.7-1c0.2-0.4,0.3-1,0.3-1.8
		c0-0.8,0.1-1.7,0-2.8l4.5,0.9c0.8,0.2,1.3,0.4,1.5,0.8s0.2,1.1,0.1,2c-0.2,1.5-0.4,2.7-0.8,3.6c-0.4,0.9-0.8,1.7-1.3,2.2
		c-0.5,0.5-1.2,0.9-2,1.1c-0.8,0.2-1.6,0.3-2.6,0.3h-7.4c-1.4,0-2.6-0.5-3.6-1.4c-1-0.9-1.5-2.4-1.5-4.3V74.7h-4.4
		c-0.4,3-1.1,5.7-2.2,8.1c-1.1,2.4-2.4,4.5-4.1,6.3c-1.6,1.8-3.6,3.3-5.8,4.4s-4.6,2-7.2,2.5c1.6-1,3.1-2.2,4.5-3.6
		c1.4-1.4,2.6-3.1,3.7-4.9c1.1-1.8,2-3.8,2.7-6c0.7-2.2,1.2-4.4,1.5-6.8H5.3l-1.1-2.2h16.4V53l8.8,1l-1.9,1.6v16.9h11.9l2-1.8l2.4,4
		H33.2z M11.8,70.6c-0.1-1-0.3-2.1-0.6-3.3c-0.3-1.2-0.7-2.4-1.1-3.6c-0.4-1.2-1-2.4-1.5-3.6c-0.6-1.2-1.2-2.3-1.8-3.3
		c1.1,0.4,2.2,0.9,3.3,1.6c1.1,0.6,2,1.3,2.9,2c0.9,0.7,1.7,1.5,2.4,2.2c0.7,0.8,1.2,1.5,1.5,2.2c0.3,0.7,0.4,1.3,0.4,1.9
		c-0.1,0.6-0.4,1-1,1.4L11.8,70.6z M41.8,60.9c-1.5,2.1-3.3,4.1-5.4,5.8c-2.1,1.7-4.3,3.1-6.5,4.2c1.4-2.4,2.7-4.9,3.7-7.5
		c1-2.6,1.8-5.1,2.3-7.4l5.3,2.4c0.6,0.3,0.9,0.6,1,1.1C42.2,60,42.1,60.4,41.8,60.9z"/>
	<path d="M59.7,64.8v-4.7h-8.2L50.4,58h9.3v-5l8.8,1l-1.9,1.6V58h10.7v-5l8.8,1l-1.9,1.6V58H89l2-1.8l2.4,4h-9.3v4.7h-6.9v-4.7H66.6
		v4.7H59.7z M73,71H89l2-1.8l2.4,4h-30v17.6h23l2-1.8l2.4,4H63.5v2.8h-6.9V73.2h-5L50.4,71h21.1c-0.6-1.5-1.3-2.8-1.9-3.9
		c-0.7-1.1-1.4-2.1-2.2-3c1.5-0.1,2.9,0.1,4.4,0.4c1.5,0.3,2.7,0.7,3.7,1.2c1,0.5,1.7,1.1,2,1.6c0.3,0.6,0.1,1.1-0.6,1.5L73,71z"/>
</g>
<g>
</g>
<g>
</g>
<g>
</g>
<g>
</g>
<g>
</g>
</svg>
